<svg width="297" height="297" viewBox="0 0 297 297" fill="none" xmlns="http://www.w3.org/2000/svg">
<g id="archery-svgrepo-com (2) 1">
<path id="Vector" d="M18.468 33.394H28.326L21.416 27.348C17.211 23.668 16.785 17.276 20.465 13.07C24.145 8.86301 30.539 8.43701 34.743 12.118L41.742 18.242V10.12C41.742 4.53201 46.272 0.00100708 51.861 0.00100708C57.449 0.00100708 61.98 4.53201 61.98 10.12L62.68 36.651L73.098 45.678C95.993 23.377 127.244 9.61501 161.654 9.61501C231.68 9.61501 288.65 66.585 288.65 136.612C288.65 176.475 270.182 212.1 241.362 235.4L285.686 279.725C289.638 283.677 289.638 290.084 285.686 294.036C283.71 296.012 281.121 297 278.531 297C275.941 297 273.352 296.012 271.376 294.036L224.356 247.016C205.846 257.569 184.444 263.607 161.655 263.607C138.866 263.607 117.463 257.569 98.953 247.016L51.934 294.036C49.957 296.012 47.369 297 44.778 297C42.188 297 39.599 296.012 37.623 294.036C33.671 290.084 33.671 283.677 37.623 279.725L81.948 235.4C53.127 212.1 34.659 176.475 34.659 136.612C34.659 108.262 43.999 82.053 59.76 60.897L50.747 52.92L18.47 53.632C12.881 53.632 8.35102 49.102 8.35102 43.513C8.34902 37.925 12.879 33.394 18.468 33.394ZM54.896 136.611C54.896 195.477 102.788 243.369 161.655 243.369C220.521 243.369 268.413 195.477 268.413 136.611C268.413 77.744 220.521 29.852 161.655 29.852C133.31 29.852 107.511 40.959 88.379 59.046L104.648 73.281C119.762 59.661 139.754 51.355 161.656 51.355C208.666 51.355 246.911 89.599 246.911 136.61C246.911 183.62 208.666 221.864 161.656 221.864C114.645 221.864 76.401 183.62 76.401 136.61C76.401 118.774 81.915 102.208 91.315 88.506L75.044 74.268C62.373 91.822 54.896 113.359 54.896 136.611ZM96.638 136.611C96.638 172.461 125.804 201.627 161.655 201.627C197.505 201.627 226.671 172.461 226.671 136.611C226.671 100.76 197.505 71.594 161.655 71.594C145.824 71.594 131.3 77.288 120.012 86.726L136.323 100.998C143.442 95.711 152.195 92.58 161.655 92.58C185.449 92.58 204.806 112.331 204.806 136.61C204.806 160.887 185.449 180.64 161.655 180.64C137.861 180.64 118.504 160.887 118.504 136.61C118.504 129.361 120.24 122.524 123.293 116.488L106.685 101.955C100.332 111.996 96.638 123.877 96.638 136.611ZM138.742 136.611C138.742 149.73 149.02 160.403 161.655 160.403C174.289 160.403 184.567 149.73 184.567 136.611C184.567 123.492 174.289 112.82 161.655 112.82C158.3 112.82 155.116 113.578 152.242 114.928L168.318 128.994C172.524 132.674 172.95 139.066 169.27 143.272C167.269 145.559 164.467 146.728 161.651 146.728C159.286 146.728 156.91 145.904 154.991 144.223L139.471 130.643C138.995 132.553 138.742 134.552 138.742 136.611Z" fill="#3D97BB" fill-opacity="0.25"/>
</g>
</svg>
