<svg width="458" height="466" viewBox="0 0 458 466" fill="none" xmlns="http://www.w3.org/2000/svg">
<g id="archery-champion-svgrepo-com 1">
<g id="Group">
<path id="Vector" d="M204.967 134.02C176.583 134.02 153.49 110.522 153.49 81.6398C153.49 52.7594 176.583 29.2637 204.967 29.2637C233.346 29.2637 256.432 52.7594 256.432 81.6398C256.432 110.523 233.346 134.02 204.967 134.02Z" fill="#3D97BB" fill-opacity="0.25"/>
<path id="Vector_2" d="M85.9186 423.108L129.469 349.552C131.506 346.11 134.408 338.603 135.221 334.678L151.411 234.634L149.976 234.546C138.974 233.868 129.764 227.947 125.336 218.707C120.907 209.468 121.992 198.438 128.239 189.202L154.531 150.326C158.596 144.314 164.369 140.725 172.495 140.725C172.682 140.725 252.962 140.725 252.962 140.725L290.47 16.4525C288.689 16.1652 286.895 16.0141 285.087 16.0141C280.741 16.0141 277.217 12.4289 277.217 8.00704C277.217 3.58515 280.741 0 285.087 0C309.814 0 332.628 18.3371 349.328 51.6344C361.967 76.8346 370.069 108.548 372.831 142.862C380.191 146.423 385.292 154.061 385.292 162.889C385.292 171.393 380.56 178.789 373.635 182.505C372.09 221.931 363.598 258.686 349.329 287.137C332.629 320.434 309.815 338.771 285.088 338.771C280.742 338.771 277.218 335.186 277.218 330.764C277.218 326.342 280.742 322.757 285.088 322.757C286.273 322.757 287.452 322.691 288.626 322.566L252.267 238.193C249.802 239.356 247.097 240.056 244.252 240.201L242.559 259.444C242.51 260.52 242.695 261.153 242.779 261.549L280.289 437.676C282.971 450.269 275.083 462.736 262.703 465.467C261.087 465.82 259.444 466 257.821 466C247.1 466 237.668 458.251 235.394 447.574L202.194 291.689H191.061L180.17 344.31C178.293 353.382 173.518 365.727 168.818 373.667L125.268 447.225C121.073 454.311 113.711 458.54 105.574 458.54C101.414 458.54 97.3226 457.38 93.741 455.185C82.8938 448.537 79.3849 434.148 85.9186 423.108ZM305.204 22.1895L269.426 140.726H356.809C351.517 84.6305 331.097 38.3598 305.204 22.1895ZM357.756 185.054H256.045L252.163 197.919C260.127 201.616 265.45 210.024 264.89 219.431C264.773 221.397 264.385 223.283 263.8 225.074L303.638 317.518C332.26 301.122 354.546 248.065 357.756 185.054Z" fill="#3D97BB" fill-opacity="0.25"/>
</g>
<path id="Arrow 1" d="M447.303 165.303C450.232 162.374 450.232 157.626 447.303 154.697L399.574 106.967C396.645 104.038 391.896 104.038 388.967 106.967C386.038 109.896 386.038 114.645 388.967 117.574L431.393 160L388.967 202.426C386.038 205.355 386.038 210.104 388.967 213.033C391.896 215.962 396.645 215.962 399.574 213.033L447.303 165.303ZM175 167.5H442V152.5H175V167.5Z" fill="#3D97BB" fill-opacity="0.25"/>
</g>
</svg>
