<svg width="850" height="786" viewBox="0 0 850 786" fill="none" xmlns="http://www.w3.org/2000/svg">
<g id="drawing 2">
<g id="card4">
<path id="rect3727-8" d="M255.797 275.847L255.277 509.531C255.256 518.787 262.2 526.306 270.785 526.325L577.823 527.008C586.409 527.028 593.386 519.54 593.406 510.284L593.927 276.6C593.947 267.344 587.004 259.825 578.418 259.806L271.38 259.122C262.794 259.103 255.817 266.591 255.797 275.847Z" fill="white" stroke="black" stroke-width="0.218615"/>
</g>
<g id="card3">
<path id="rect3727-8_2" d="M255.797 275.847L255.277 509.531C255.256 518.787 262.2 526.306 270.785 526.325L577.823 527.008C586.409 527.028 593.386 519.54 593.406 510.284L593.927 276.6C593.947 267.344 587.004 259.825 578.418 259.806L271.38 259.122C262.794 259.103 255.817 266.591 255.797 275.847Z" fill="white" stroke="black" stroke-width="0.218615"/>
</g>
<g id="card2">
<path id="rect3727-8_3" d="M255.797 275.847L255.277 509.531C255.256 518.787 262.2 526.306 270.785 526.325L577.823 527.008C586.409 527.028 593.386 519.54 593.406 510.284L593.927 276.6C593.947 267.344 587.004 259.825 578.418 259.806L271.38 259.122C262.794 259.103 255.817 266.591 255.797 275.847Z" fill="white" stroke="black" stroke-width="0.218615"/>
</g>
<g id="card1">
<path id="rect3727-8_4" d="M255.797 275.847L255.277 509.531C255.256 518.787 262.2 526.306 270.785 526.325L577.823 527.008C586.409 527.028 593.386 519.54 593.406 510.284L593.927 276.6C593.947 267.344 587.004 259.825 578.418 259.806L271.38 259.122C262.794 259.103 255.817 266.591 255.797 275.847Z" fill="white" stroke="black" stroke-width="0.218615"/>
</g>
</g>
</svg>
