<svg width="916" height="262" viewBox="0 0 916 262" fill="none" xmlns="http://www.w3.org/2000/svg">
<rect width="916" height="262" fill="#E5E5E5"/>
<path id="ball5-3" d="M803.808 182.573C824.136 182.573 840.615 167.446 840.615 148.786C840.615 130.127 824.136 115 803.808 115C783.479 115 767 130.127 767 148.786C767 167.446 783.479 182.573 803.808 182.573Z" fill="white" stroke="black" stroke-width="0.959"/>
<path id="ball1-2" d="M169.808 226.573C190.136 226.573 206.615 211.446 206.615 192.786C206.615 174.127 190.136 159 169.808 159C149.479 159 133 174.127 133 192.786C133 211.446 149.479 226.573 169.808 226.573Z" fill="white" stroke="black" stroke-width="0.959"/>
<path id="ball2" d="M383.808 260.573C404.136 260.573 420.615 245.446 420.615 226.786C420.615 208.127 404.136 193 383.808 193C363.479 193 347 208.127 347 226.786C347 245.446 363.479 260.573 383.808 260.573Z" fill="white" stroke="black" stroke-width="0.959"/>
<path id="ball1" d="M308.808 260.573C329.136 260.573 345.615 245.446 345.615 226.786C345.615 208.127 329.136 193 308.808 193C288.479 193 272 208.127 272 226.786C272 245.446 288.479 260.573 308.808 260.573Z" fill="white" stroke="black" stroke-width="0.959"/>
<path id="ball1-3" d="M111.808 182.573C132.136 182.573 148.615 167.446 148.615 148.786C148.615 130.127 132.136 115 111.808 115C91.4793 115 75 130.127 75 148.786C75 167.446 91.4793 182.573 111.808 182.573Z" fill="white" stroke="black" stroke-width="0.959"/>
<path id="ball5-4" d="M851.808 131.573C872.136 131.573 888.615 116.446 888.615 97.7864C888.615 79.1267 872.136 64 851.808 64C831.479 64 815 79.1267 815 97.7864C815 116.446 831.479 131.573 851.808 131.573Z" fill="white" stroke="black" stroke-width="0.959"/>
<path id="ball1-1" d="M234.808 250.573C255.136 250.573 271.615 235.446 271.615 216.786C271.615 198.127 255.136 183 234.808 183C214.479 183 198 198.127 198 216.786C198 235.446 214.479 250.573 234.808 250.573Z" fill="white" stroke="black" stroke-width="0.959"/>
<path id="ball5-2" d="M747.808 226.573C768.136 226.573 784.615 211.446 784.615 192.786C784.615 174.127 768.136 159 747.808 159C727.479 159 711 174.127 711 192.786C711 211.446 727.479 226.573 747.808 226.573Z" fill="white" stroke="black" stroke-width="0.959"/>
<path id="ball1-4" d="M61.8076 131.573C82.1359 131.573 98.6152 116.446 98.6152 97.7864C98.6152 79.1267 82.1359 64 61.8076 64C41.4793 64 25 79.1267 25 97.7864C25 116.446 41.4793 131.573 61.8076 131.573Z" fill="white" stroke="black" stroke-width="0.959"/>
<path id="ball1-5" d="M37.8076 68.5728C58.1359 68.5728 74.6152 53.4461 74.6152 34.7864C74.6152 16.1267 58.1359 1 37.8076 1C17.4793 1 1 16.1267 1 34.7864C1 53.4461 17.4793 68.5728 37.8076 68.5728Z" fill="white" stroke="black" stroke-width="0.959"/>
<path id="ball5-1" d="M682.808 250.573C703.136 250.573 719.615 235.446 719.615 216.786C719.615 198.127 703.136 183 682.808 183C662.479 183 646 198.127 646 216.786C646 235.446 662.479 250.573 682.808 250.573Z" fill="white" stroke="black" stroke-width="0.959"/>
<path id="ball4" d="M533.808 260.573C554.136 260.573 570.615 245.446 570.615 226.786C570.615 208.127 554.136 193 533.808 193C513.479 193 497 208.127 497 226.786C497 245.446 513.479 260.573 533.808 260.573Z" fill="white" stroke="black" stroke-width="0.959"/>
<path id="ball5-5" d="M877.808 68.5728C898.136 68.5728 914.615 53.4461 914.615 34.7864C914.615 16.1267 898.136 1 877.808 1C857.479 1 841 16.1267 841 34.7864C841 53.4461 857.479 68.5728 877.808 68.5728Z" fill="white" stroke="black" stroke-width="0.959"/>
<path id="ball5" d="M608.808 260.573C629.136 260.573 645.615 245.446 645.615 226.786C645.615 208.127 629.136 193 608.808 193C588.479 193 572 208.127 572 226.786C572 245.446 588.479 260.573 608.808 260.573Z" fill="white" stroke="black" stroke-width="0.959"/>
<path id="ball3" d="M458.808 260.573C479.136 260.573 495.615 245.446 495.615 226.786C495.615 208.127 479.136 193 458.808 193C438.479 193 422 208.127 422 226.786C422 245.446 438.479 260.573 458.808 260.573Z" fill="white" stroke="black" stroke-width="0.959"/>
</svg>
